<svg xmlns="http://www.w3.org/2000/svg" viewBox="0 0 512 512"><defs><style>.cls-1{fill:none;}.cls-2{fill:#966645;}.cls-3{fill:#bbe383;}.cls-4{fill:#fffcb5;}.cls-5{fill:#93bf54;}.cls-6{fill:#4f1818;}</style></defs><title>logo-top</title><g id="Слой_2" data-name="Слой 2"><g id="Слой_1-2" data-name="Слой 1"><g id="Layer_1" data-name="Layer 1"><path class="cls-1" d="M499.2,175.86V336.14a257.28,257.28,0,0,0,0-160.28Z"/><path class="cls-2" d="M512,256a255.55,255.55,0,0,1-12.8,80.14C465.57,438.27,369.39,512,256,512,114.62,512,0,397.38,0,256S114.62,0,256,0C369.39,0,465.57,73.73,499.2,175.86A255.55,255.55,0,0,1,512,256Z"/><circle class="cls-3" cx="256" cy="256" r="238.6"/><ellipse class="cls-4" cx="256" cy="256" rx="82.5" ry="92"/><ellipse class="cls-4" cx="256" cy="256" rx="92" ry="82.5"/><path class="cls-5" d="M258.8,154.7a3.18,3.18,0,0,1-3.16,3.2h-.14a3.18,3.18,0,0,1-3.2-3.16v-.14l.9-62a3.18,3.18,0,0,1,3.16-3.2h.14a3.18,3.18,0,0,1,3.2,3.16v.14Z"/><path class="cls-5" d="M258.8,422.3a3.18,3.18,0,0,1-3.16,3.2h-.14a3.18,3.18,0,0,1-3.2-3.16v-.14l.9-62a3.18,3.18,0,0,1,3.16-3.2h.14a3.18,3.18,0,0,1,3.2,3.16v.14Z"/><path class="cls-5" d="M272.8,164.7a3.14,3.14,0,0,1-3.7,2.4h0a3.1,3.1,0,0,1-2.7-3.47v0l9.4-56.1a3.19,3.19,0,0,1,3.7-2.4h0a3.1,3.1,0,0,1,2.7,3.47v0Z"/><path class="cls-5" d="M236.2,407.4a3.14,3.14,0,0,1-3.7,2.4h0a3.1,3.1,0,0,1-2.7-3.47v0l9.4-56.1a3.14,3.14,0,0,1,3.7-2.4h0a3.1,3.1,0,0,1,2.7,3.47v0Z"/><path class="cls-5" d="M287,159.5a3.35,3.35,0,0,1-4.1,2.2h0a3.35,3.35,0,0,1-2.2-4.1l18-59.4a3.35,3.35,0,0,1,4.1-2.2h0a3.35,3.35,0,0,1,2.2,4.1Z"/><path class="cls-5" d="M213.1,416.7a3.35,3.35,0,0,1-4.1,2.2h0a3.35,3.35,0,0,1-2.2-4.1l18-59.4a3.35,3.35,0,0,1,4.1-2.2h0a3.35,3.35,0,0,1,2.2,4.1Z"/><path class="cls-5" d="M297.8,173a3.17,3.17,0,0,1-4.27,1.32l0,0h0a3.19,3.19,0,0,1-1.7-4.1l24.5-51.3a3.17,3.17,0,0,1,4.27-1.32l0,0h0a3.19,3.19,0,0,1,1.7,4.1Z"/><path class="cls-5" d="M195.5,396.1a3.17,3.17,0,0,1-4.27,1.32l0,0h0a3.19,3.19,0,0,1-1.7-4.1L214,342a3.17,3.17,0,0,1,4.27-1.32l0,0h0a3.19,3.19,0,0,1,1.7,4.1Z"/><path class="cls-5" d="M316,174a3.33,3.33,0,0,1-4.6.8h0a3.33,3.33,0,0,1-.8-4.6l35.6-50.8a3.33,3.33,0,0,1,4.6-.8h0a3.33,3.33,0,0,1,.8,4.6Z"/><path class="cls-5" d="M165.8,395.5a3.33,3.33,0,0,1-4.6.8h0a3.33,3.33,0,0,1-.8-4.6L196,340.9a3.33,3.33,0,0,1,4.6-.8h0a3.33,3.33,0,0,1,.8,4.6Z"/><path class="cls-5" d="M321.9,190.1a3,3,0,0,1-4.31,0l-.09-.09h0a3.16,3.16,0,0,1-.3-4.4l39.3-41.2a3.16,3.16,0,0,1,4.48.08l0,0h0a3.16,3.16,0,0,1,.3,4.4Z"/><path class="cls-5" d="M155.5,370.4a3,3,0,0,1-4.31,0l-.09-.09h0a3.16,3.16,0,0,1-.3-4.4l39.3-41.2a3,3,0,0,1,4.31,0l.09.09h0a3.16,3.16,0,0,1,.3,4.4Z"/><path class="cls-5" d="M337.6,195a3.31,3.31,0,0,1-4.6-.5h0a3.23,3.23,0,0,1,.52-4.54l.08-.06,48.8-38.3a3.23,3.23,0,0,1,4.54.52l.06.08h0a3.23,3.23,0,0,1-.52,4.54l-.08.06Z"/><path class="cls-5" d="M129.5,363.3a3.31,3.31,0,0,1-4.6-.5h0a3.23,3.23,0,0,1,.52-4.54l.08-.06,48.8-38.3a3.23,3.23,0,0,1,4.54.52l.06.08h0a3.23,3.23,0,0,1-.52,4.54l-.08.06Z"/><path class="cls-5" d="M338.7,212.2a3.14,3.14,0,0,1-4.2-1.4h0a3.13,3.13,0,0,1,1-4.3l49.5-28a3.14,3.14,0,0,1,4.2,1.4h0a3.13,3.13,0,0,1-1,4.3Z"/><path class="cls-5" d="M127,336.4a3.14,3.14,0,0,1-4.2-1.4h0a3.13,3.13,0,0,1,1-4.3l49.5-28a3.14,3.14,0,0,1,4.2,1.4h0a3.13,3.13,0,0,1-1,4.3Z"/><path class="cls-5" d="M353.3,224.4a3.31,3.31,0,0,1-4.2-2h0a3.31,3.31,0,0,1,2-4.2l58.5-20.6a3.31,3.31,0,0,1,4.2,2h0a3.31,3.31,0,0,1-2,4.2Z"/><path class="cls-5" d="M102.3,317.3a3.31,3.31,0,0,1-4.2-2h0a3.31,3.31,0,0,1,2-4.2l58.5-20.7a3.31,3.31,0,0,1,4.2,2h0a3.31,3.31,0,0,1-2,4.2Z"/><path class="cls-5" d="M348.8,241a3.25,3.25,0,0,1-3.6-2.7h0a3.18,3.18,0,0,1,2.3-3.8l55.9-10.6a3.25,3.25,0,0,1,3.6,2.7h0a3.18,3.18,0,0,1-2.3,3.8Z"/><path class="cls-5" d="M108.5,290.9a3.25,3.25,0,0,1-3.6-2.7h0a3.18,3.18,0,0,1,2.3-3.8l55.9-10.7a3.25,3.25,0,0,1,3.6,2.7h0a3.18,3.18,0,0,1-2.3,3.8Z"/><path class="cls-5" d="M358.7,261.1a3.27,3.27,0,0,1-3.2-3.34v-.06h0a3.21,3.21,0,0,1,3.21-3.21h.19l62,1.4a3.27,3.27,0,0,1,3.2,3.34v.06h0a3.27,3.27,0,0,1-3.34,3.2h-.06Z"/><path class="cls-5" d="M91,258.9a3.24,3.24,0,0,1-3.2-3.28v0h0a3.27,3.27,0,0,1,3.34-3.2h.06l62,1.4a3.27,3.27,0,0,1,3.2,3.34v.06h0a3.27,3.27,0,0,1-3.34,3.2H153Z"/><path class="cls-5" d="M348.6,275a3.19,3.19,0,0,1-2.4-3.7h0a3.1,3.1,0,0,1,3.47-2.7h0l56,9.9a3.19,3.19,0,0,1,2.4,3.7h0a3.1,3.1,0,0,1-3.47,2.7h0Z"/><path class="cls-5" d="M106.2,236.4a3.19,3.19,0,0,1-2.4-3.7h0a3.1,3.1,0,0,1,3.47-2.7h0l56,9.9a3.24,3.24,0,0,1,2.4,3.8h0a3.1,3.1,0,0,1-3.47,2.7h0Z"/><path class="cls-5" d="M352.3,293.2a3.31,3.31,0,0,1-2-4.2h0a3.31,3.31,0,0,1,4.2-2L413,307.9a3.31,3.31,0,0,1,2,4.2h0a3.31,3.31,0,0,1-4.2,2Z"/><path class="cls-5" d="M99,207a3.31,3.31,0,0,1-2-4.2h0a3.31,3.31,0,0,1,4.2-2l58.4,20.9a3.31,3.31,0,0,1,2,4.2h0a3.31,3.31,0,0,1-4.2,2Z"/><path class="cls-5" d="M338.3,303.3a3.07,3.07,0,0,1-1.17-4.18l.07-.12h0a3.14,3.14,0,0,1,4.19-1.5h0l50.1,27a3.07,3.07,0,0,1,1.17,4.18l-.07.12h0a3.23,3.23,0,0,1-4.2,1.5Z"/><path class="cls-5" d="M120.4,190.4a3.16,3.16,0,0,1-1.1-4.3h0a3.14,3.14,0,0,1,4.19-1.5h0l50.1,27a3.16,3.16,0,0,1,1.1,4.3h0a3.23,3.23,0,0,1-4.2,1.5Z"/><path class="cls-5" d="M332.3,326.3a3.21,3.21,0,0,1-.37-4.52l.07-.08h0a3.21,3.21,0,0,1,4.52-.37l.08.07,46.6,41a3.21,3.21,0,0,1,.37,4.52l-.07.08h0a3.21,3.21,0,0,1-4.52.37l-.08-.07Z"/><path class="cls-5" d="M128.8,152.5a3.21,3.21,0,0,1-.37-4.52l.07-.08h0a3.21,3.21,0,0,1,4.52-.37l.08.07,46.6,41a3.21,3.21,0,0,1,.37,4.52l-.07.08h0a3.21,3.21,0,0,1-4.52.37l-.08-.07Z"/><path class="cls-5" d="M315.5,330.5a3.1,3.1,0,0,1,.52-4.34l.08-.06h0a3,3,0,0,1,4.24,0,1.29,1.29,0,0,1,.16.17L357,369.9a3.1,3.1,0,0,1-.52,4.34l-.08.06h0a3,3,0,0,1-4.24,0,1.29,1.29,0,0,1-.16-.17Z"/><path class="cls-5" d="M154.8,145a3.1,3.1,0,0,1,.54-4.35l.06-.05h0a3,3,0,0,1,4.24,0,1.29,1.29,0,0,1,.16.17l36.5,43.6a3.1,3.1,0,0,1-.54,4.35l-.06.05h0a3,3,0,0,1-4.24,0,1.29,1.29,0,0,1-.16-.17Z"/><path class="cls-5" d="M303.4,348.6a3.17,3.17,0,0,1,1.17-4.33l.13-.07h0a3.17,3.17,0,0,1,4.33,1.17l.07.13,29.3,54.7a3.26,3.26,0,0,1-1.3,4.4h0a3.34,3.34,0,0,1-4.4-1.3Z"/><path class="cls-5" d="M173.5,114.6a3.17,3.17,0,0,1,1.17-4.33l.13-.07h0a3.17,3.17,0,0,1,4.33,1.17l.07.13,29.3,54.7a3.17,3.17,0,0,1-1.17,4.33l-.13.07h0a3.34,3.34,0,0,1-4.4-1.3Z"/><path class="cls-5" d="M286.3,346.7a3.08,3.08,0,0,1,2-3.87l.1,0h0a3.22,3.22,0,0,1,4.1,1.7l19,53.6a3.08,3.08,0,0,1-2,3.87l-.1,0h0a3.22,3.22,0,0,1-4.1-1.7Z"/><path class="cls-5" d="M200.5,116.8a3.08,3.08,0,0,1,2-3.87l.1,0h0a3.22,3.22,0,0,1,4.1,1.7l19,53.6a3.08,3.08,0,0,1-2,3.87l-.1,0h0a3.22,3.22,0,0,1-4.1-1.7Z"/><path class="cls-5" d="M269.9,359.3a3.21,3.21,0,0,1,2.66-3.68l.14,0h0a3.21,3.21,0,0,1,3.68,2.66s0,.09,0,.14l9.2,61.4a3.21,3.21,0,0,1-2.66,3.68l-.14,0h0a3.21,3.21,0,0,1-3.68-2.66s0-.09,0-.14Z"/><path class="cls-5" d="M226.3,95.2A3.21,3.21,0,0,1,229,91.52l.14,0h0a3.21,3.21,0,0,1,3.68,2.66s0,.09,0,.14l9.2,61.4a3.21,3.21,0,0,1-2.66,3.68l-.14,0h0a3.21,3.21,0,0,1-3.68-2.66c0-.05,0-.09,0-.14Z"/><ellipse class="cls-6" cx="187.42" cy="178.21" rx="3.6" ry="6.2" transform="matrix(0.83, -0.56, 0.56, 0.83, -67.6, 135.23)"/><ellipse class="cls-6" cx="192" cy="143.59" rx="3.6" ry="6.2" transform="matrix(0.83, -0.56, 0.56, 0.83, -47.46, 131.87)"/><ellipse class="cls-6" cx="237.66" cy="149.02" rx="6.2" ry="3.6" transform="translate(78.98 380.34) rotate(-87.64)"/><ellipse class="cls-6" cx="219" cy="155.2" rx="3.6" ry="6.2" transform="translate(-49.38 159.86) rotate(-36.32)"/><ellipse class="cls-6" cx="255.9" cy="129.75" rx="6.2" ry="3.6" transform="translate(84.81 360.08) rotate(-80.28)"/><ellipse class="cls-6" cx="272.4" cy="147.95" rx="6.2" ry="3.6" transform="translate(80.45 391.36) rotate(-80.25)"/><ellipse class="cls-6" cx="299.97" cy="157.86" rx="6.2" ry="3.6" transform="matrix(0.54, -0.84, 0.84, 0.54, 4.37, 323.77)"/><ellipse class="cls-6" cx="291.55" cy="129.68" rx="6.2" ry="3.6" transform="matrix(0.13, -0.99, 0.99, 0.13, 125.26, 402.01)"/><ellipse class="cls-6" cx="317.68" cy="165.66" rx="6.2" ry="3.6" transform="translate(-9.62 311.38) rotate(-51.54)"/><ellipse class="cls-6" cx="341.55" cy="164.87" rx="6.2" ry="3.6" transform="translate(0.01 329.77) rotate(-51.54)"/><ellipse class="cls-6" cx="364.87" cy="195.29" rx="6.2" ry="3.6" transform="translate(-38.39 102.29) rotate(-15.17)"/><ellipse class="cls-6" cx="347.88" cy="183.47" rx="6.2" ry="3.6" transform="translate(-5.46 356.21) rotate(-53.86)"/><ellipse class="cls-6" cx="362.01" cy="216.47" rx="6.2" ry="3.6" transform="translate(-26.09 51.27) rotate(-7.82)"/><ellipse class="cls-6" cx="348.93" cy="306.3" rx="3.6" ry="6.2" transform="translate(-99.1 428.13) rotate(-56.49)"/><ellipse class="cls-6" cx="382.08" cy="228.09" rx="6.2" ry="3.6" transform="translate(-28.17 55.75) rotate(-8.05)"/><ellipse class="cls-6" cx="358.89" cy="273.73" rx="3.6" ry="6.2" transform="translate(-0.18 547.23) rotate(-74.63)"/><ellipse class="cls-6" cx="361.93" cy="292.71" rx="3.6" ry="6.2" transform="translate(-16.25 564.11) rotate(-74.63)"/><ellipse class="cls-6" cx="384.3" cy="258.53" rx="6.2" ry="3.6" transform="translate(-39.42 71.47) rotate(-10.11)"/><ellipse class="cls-6" cx="272.41" cy="364.21" rx="3.6" ry="6.2" transform="translate(-72.84 68.14) rotate(-12.59)"/><ellipse class="cls-6" cx="345.12" cy="333.04" rx="3.6" ry="6.2" transform="translate(-132.39 288.24) rotate(-38.62)"/><ellipse class="cls-6" cx="298.91" cy="372.35" rx="3.6" ry="6.2" transform="translate(-74.29 74.5) rotate(-12.65)"/><ellipse class="cls-6" cx="326.3" cy="338.51" rx="3.6" ry="6.2" transform="translate(-133.93 242.34) rotate(-34.25)"/><ellipse class="cls-6" cx="256.01" cy="364.15" rx="3.6" ry="6.2" transform="translate(-73.53 64.9) rotate(-12.65)"/><ellipse class="cls-6" cx="310" cy="355.48" rx="3.6" ry="6.2" transform="translate(-111.45 143.7) rotate(-22.23)"/><ellipse class="cls-6" cx="226.27" cy="363.97" rx="6.2" ry="3.6" transform="translate(-197.96 424.79) rotate(-66.29)"/><ellipse class="cls-6" cx="241.3" cy="358.2" rx="3.6" ry="6.2" transform="matrix(0.97, -0.26, 0.26, 0.97, -84.09, 74.2)"/><ellipse class="cls-6" cx="206.66" cy="357.54" rx="6.2" ry="3.6" transform="translate(-206.24 349.96) rotate(-58.92)"/><ellipse class="cls-6" cx="191.93" cy="351.22" rx="6.2" ry="3.6" transform="matrix(0.52, -0.86, 0.86, 0.52, -207.94, 334.22)"/><ellipse class="cls-6" cx="166.75" cy="325.34" rx="6.2" ry="3.6" transform="translate(-158.57 158.56) rotate(-35.72)"/><ellipse class="cls-6" cx="172.5" cy="345.55" rx="6.2" ry="3.6" transform="translate(-213.41 330.38) rotate(-61.22)"/><ellipse class="cls-6" cx="164.91" cy="310.71" rx="6.2" ry="3.6" transform="translate(-133.78 124.92) rotate(-30.16)"/><ellipse class="cls-6" cx="147.02" cy="297.18" rx="6.2" ry="3.6" transform="matrix(0.86, -0.5, 0.5, 0.86, -129.41, 114.09)"/><ellipse class="cls-6" cx="137.38" cy="256.74" rx="3.6" ry="6.2" transform="translate(-132.66 365.68) rotate(-83.82)"/><ellipse class="cls-6" cx="154.2" cy="278.49" rx="6.2" ry="3.6" transform="translate(-125.35 126.22) rotate(-32.45)"/><ellipse class="cls-6" cx="143.41" cy="241.05" rx="3.6" ry="6.2" transform="translate(-124.53 323.99) rotate(-76.45)"/><ellipse class="cls-6" cx="140.61" cy="218.48" rx="3.6" ry="6.2" transform="translate(-104.76 303.9) rotate(-76.43)"/><ellipse class="cls-6" cx="171.63" cy="186.49" rx="3.6" ry="6.2" transform="translate(-80.54 211.9) rotate(-53.13)"/><ellipse class="cls-6" cx="143.52" cy="197.44" rx="3.6" ry="6.2" transform="translate(-78.11 299.72) rotate(-78.76)"/></g></g></g></svg>