<?xml version="1.0" encoding="utf-8"?>
<!-- Generator: Adobe Illustrator 24.0.1, SVG Export Plug-In . SVG Version: 6.00 Build 0)  -->
<!DOCTYPE svg PUBLIC "-//W3C//DTD SVG 1.1//EN" "http://www.w3.org/Graphics/SVG/1.1/DTD/svg11.dtd" [
	<!ENTITY ns_extend "http://ns.adobe.com/Extensibility/1.0/">
	<!ENTITY ns_ai "http://ns.adobe.com/AdobeIllustrator/10.0/">
	<!ENTITY ns_graphs "http://ns.adobe.com/Graphs/1.0/">
	<!ENTITY ns_vars "http://ns.adobe.com/Variables/1.0/">
	<!ENTITY ns_imrep "http://ns.adobe.com/ImageReplacement/1.0/">
	<!ENTITY ns_sfw "http://ns.adobe.com/SaveForWeb/1.0/">
	<!ENTITY ns_custom "http://ns.adobe.com/GenericCustomNamespace/1.0/">
	<!ENTITY ns_adobe_xpath "http://ns.adobe.com/XPath/1.0/">
]>
<svg version="1.1" id="Layer_1" xmlns:x="&ns_extend;" xmlns:i="&ns_ai;" xmlns:graph="&ns_graphs;"
	 xmlns="http://www.w3.org/2000/svg" xmlns:xlink="http://www.w3.org/1999/xlink" x="0px" y="0px" viewBox="0 0 1230.1 512.4"
	 style="enable-background:new 0 0 1230.1 512.4;" xml:space="preserve">
<style type="text/css">
	.st0{display:none;fill:none;}
	.st1{enable-background:new    ;}
	.st2{fill:#FFFFFF;}
	.st3{fill:#966645;}
	.st4{fill:#BBE383;}
	.st5{fill:#FFFCB5;}
	.st6{fill:#93BF54;}
	.st7{fill:#4F1818;}
	.st8{clip-path:url(#SVGID_4_);}
	.st9{clip-path:url(#SVGID_7_);}
	.st10{fill:#FFFFFF;stroke:url(#SVGID_9_);stroke-miterlimit:10;}
	.st11{clip-path:url(#SVGID_11_);}
	.st12{clip-path:url(#SVGID_13_);}
	.st13{fill:#FFFFFF;stroke:#FFFFFF;stroke-miterlimit:10;}
</style>
<metadata>
	<sfw  xmlns="&ns_sfw;">
		<slices></slices>
		<sliceSourceBounds  bottomLeftOrigin="true" height="512" width="1227.878" x="2" y="0.3"></sliceSourceBounds>
	</sfw>
</metadata>
<line class="st0" x1="1038.6" y1="207.1" x2="489.5" y2="207.3"/>
<g>
	<g class="st1">
		<path class="st2" d="M664.395,352.499l-54.8-84.4l-22.4,23.2v61.2h-64v-292h64v169.2l70.8-87.2h68l-75.6,90.4l82,119.599
			L664.395,352.499L664.395,352.499z"/>
	</g>
	<g class="st1">
		<path class="st2" d="M748.922,352.499v-210.16h48.545v210.16H748.922z"/>
	</g>
	<g class="st1">
		<path class="st2" d="M1098.395,142.5h60.8l-86.8,210h-52.4l-32.399-86.4l-32.4,86.4h-52.399l-86.801-210h60.4l57.2,150.799
			l19.6-57.2l-37.2-93.6h51.2l20.4,63.2l20-63.2h51.2l-36.801,93.6l19.601,57.2L1098.395,142.5z"/>
	</g>
	<g class="st1">
		<path class="st2" d="M1177.723,352.499v-210.16h48.544v210.16H1177.723z"/>
	</g>
	<circle class="st3" cx="258" cy="256.1" r="256"/>
	<circle class="st4" cx="258" cy="256.1" r="238.6"/>
	<g>
		<ellipse class="st5" cx="258" cy="256.1" rx="82.5" ry="92"/>
		<ellipse class="st5" cx="258" cy="256.1" rx="92" ry="82.5"/>
	</g>
	<g>
		<path class="st6" d="M260.8,154.8c0,1.8-1.5,3.3-3.3,3.2l0,0c-1.8,0-3.3-1.5-3.2-3.3l0.9-62c0-1.8,1.5-3.3,3.3-3.2l0,0
			c1.8,0,3.3,1.5,3.2,3.3L260.8,154.8z"/>
		<path class="st6" d="M260.8,422.4c0,1.8-1.5,3.3-3.3,3.2l0,0c-1.8,0-3.3-1.5-3.2-3.3l0.9-62c0-1.8,1.5-3.3,3.3-3.2l0,0
			c1.8,0,3.3,1.5,3.2,3.3L260.8,422.4z"/>
		<path class="st6" d="M274.8,164.8c-0.3,1.6-1.9,2.7-3.7,2.4l0,0c-1.8-0.3-3-1.9-2.7-3.5l9.4-56.1c0.3-1.6,2-2.7,3.7-2.4l0,0
			c1.8,0.3,3,1.9,2.7,3.5L274.8,164.8z"/>
		<path class="st6" d="M238.2,407.5c-0.3,1.6-1.9,2.7-3.7,2.4l0,0c-1.8-0.3-3-1.9-2.7-3.5l9.4-56.1c0.3-1.6,1.9-2.7,3.7-2.4l0,0
			c1.8,0.3,3,1.9,2.7,3.5L238.2,407.5z"/>
		<path class="st6" d="M289,159.6c-0.5,1.7-2.4,2.7-4.1,2.2l0,0c-1.7-0.5-2.7-2.4-2.2-4.1l18-59.4c0.5-1.7,2.4-2.7,4.1-2.2l0,0
			c1.7,0.5,2.7,2.4,2.2,4.1L289,159.6z"/>
		<path class="st6" d="M215.1,416.8c-0.5,1.7-2.4,2.7-4.1,2.2l0,0c-1.7-0.5-2.7-2.4-2.2-4.1l18-59.4c0.5-1.7,2.4-2.7,4.1-2.2l0,0
			c1.7,0.5,2.7,2.4,2.2,4.1L215.1,416.8z"/>
		<path class="st6" d="M299.8,173.1c-0.7,1.5-2.6,2.1-4.3,1.3l0,0c-1.6-0.8-2.4-2.6-1.7-4.1l24.5-51.3c0.7-1.5,2.6-2.1,4.3-1.3l0,0
			c1.6,0.8,2.4,2.6,1.7,4.1L299.8,173.1z"/>
		<path class="st6" d="M197.5,396.2c-0.7,1.5-2.6,2.1-4.3,1.3l0,0c-1.6-0.8-2.4-2.6-1.7-4.1l24.5-51.3c0.7-1.5,2.6-2.1,4.3-1.3l0,0
			c1.6,0.8,2.4,2.6,1.7,4.1L197.5,396.2z"/>
		<path class="st6" d="M318,174.1c-1,1.5-3.1,1.8-4.6,0.8l0,0c-1.5-1-1.8-3.1-0.8-4.6l35.6-50.8c1-1.5,3.1-1.8,4.6-0.8l0,0
			c1.5,1,1.8,3.1,0.8,4.6L318,174.1z"/>
		<path class="st6" d="M167.8,395.6c-1,1.5-3.1,1.8-4.6,0.8l0,0c-1.5-1-1.8-3.1-0.8-4.6L198,341c1-1.5,3.1-1.8,4.6-0.8l0,0
			c1.5,1,1.8,3.1,0.8,4.6L167.8,395.6z"/>
		<path class="st6" d="M323.9,190.2c-1.1,1.2-3.1,1.2-4.4-0.1l0,0c-1.3-1.2-1.4-3.2-0.3-4.4l39.3-41.2c1.1-1.2,3.1-1.2,4.5,0.1l0,0
			c1.3,1.3,1.4,3.2,0.3,4.4L323.9,190.2z"/>
		<path class="st6" d="M157.5,370.5c-1.1,1.2-3.1,1.2-4.4-0.1l0,0c-1.3-1.3-1.4-3.2-0.3-4.4l39.3-41.2c1.1-1.2,3.1-1.2,4.4,0.1l0,0
			c1.3,1.3,1.4,3.2,0.3,4.4L157.5,370.5z"/>
		<path class="st6" d="M339.6,195.1c-1.4,1.1-3.5,0.9-4.6-0.5l0,0c-1.1-1.4-0.9-3.5,0.6-4.6l48.8-38.3c1.4-1.1,3.5-0.9,4.6,0.6l0,0
			c1.1,1.4,0.9,3.5-0.6,4.6L339.6,195.1z"/>
		<path class="st6" d="M131.5,363.4c-1.4,1.1-3.5,0.9-4.6-0.5l0,0c-1.1-1.4-0.9-3.5,0.6-4.6l48.8-38.3c1.4-1.1,3.5-0.9,4.6,0.6l0,0
			c1.1,1.4,0.9,3.5-0.6,4.6L131.5,363.4z"/>
		<path class="st6" d="M340.7,212.3c-1.4,0.8-3.3,0.2-4.2-1.4l0,0c-0.9-1.6-0.4-3.5,1-4.3l49.5-28c1.4-0.8,3.3-0.2,4.2,1.4l0,0
			c0.9,1.6,0.4,3.5-1,4.3L340.7,212.3z"/>
		<path class="st6" d="M129,336.5c-1.4,0.8-3.3,0.2-4.2-1.4l0,0c-0.9-1.6-0.4-3.5,1-4.3l49.5-28c1.4-0.8,3.3-0.2,4.2,1.4l0,0
			c0.9,1.6,0.4,3.5-1,4.3L129,336.5z"/>
		<path class="st6" d="M355.3,224.5c-1.7,0.6-3.6-0.3-4.2-2l0,0c-0.6-1.7,0.3-3.6,2-4.2l58.5-20.6c1.7-0.6,3.6,0.3,4.2,2l0,0
			c0.6,1.7-0.3,3.6-2,4.2L355.3,224.5z"/>
		<path class="st6" d="M104.3,317.4c-1.7,0.6-3.6-0.3-4.2-2l0,0c-0.6-1.7,0.3-3.6,2-4.2l58.5-20.7c1.7-0.6,3.6,0.3,4.2,2l0,0
			c0.6,1.7-0.3,3.6-2,4.2L104.3,317.4z"/>
		<path class="st6" d="M350.8,241.1c-1.6,0.3-3.2-0.9-3.6-2.7l0,0c-0.3-1.8,0.7-3.5,2.3-3.8l55.9-10.6c1.6-0.3,3.2,0.9,3.6,2.7l0,0
			c0.3,1.8-0.7,3.5-2.3,3.8L350.8,241.1z"/>
		<path class="st6" d="M110.5,291c-1.6,0.3-3.2-0.9-3.6-2.7l0,0c-0.3-1.8,0.7-3.5,2.3-3.8l55.9-10.7c1.6-0.3,3.2,0.9,3.6,2.7l0,0
			c0.3,1.8-0.7,3.5-2.3,3.8L110.5,291z"/>
		<path class="st6" d="M360.7,261.2c-1.8,0-3.2-1.5-3.2-3.4l0,0c0-1.8,1.5-3.3,3.4-3.2l62,1.4c1.8,0,3.2,1.5,3.2,3.4l0,0
			c0,1.8-1.5,3.2-3.4,3.2L360.7,261.2z"/>
		<path class="st6" d="M93,259c-1.8,0-3.2-1.5-3.2-3.3l0,0c0-1.8,1.5-3.2,3.4-3.2l62,1.4c1.8,0,3.2,1.5,3.2,3.4l0,0
			c0,1.8-1.5,3.2-3.4,3.2L93,259z"/>
		<path class="st6" d="M350.6,275.1c-1.6-0.3-2.7-2-2.4-3.7l0,0c0.3-1.8,1.9-3,3.5-2.7l56,9.9c1.6,0.3,2.7,2,2.4,3.7l0,0
			c-0.3,1.8-1.9,3-3.5,2.7L350.6,275.1z"/>
		<path class="st6" d="M108.2,236.5c-1.6-0.3-2.7-2-2.4-3.7l0,0c0.3-1.8,1.9-3,3.5-2.7l56,9.9c1.6,0.3,2.7,2,2.4,3.8l0,0
			c-0.3,1.8-1.9,3-3.5,2.7L108.2,236.5z"/>
		<path class="st6" d="M354.3,293.3c-1.7-0.6-2.6-2.5-2-4.2l0,0c0.6-1.7,2.5-2.6,4.2-2L415,308c1.7,0.6,2.6,2.5,2,4.2l0,0
			c-0.6,1.7-2.5,2.6-4.2,2L354.3,293.3z"/>
		<path class="st6" d="M101,207.1c-1.7-0.6-2.6-2.5-2-4.2l0,0c0.6-1.7,2.5-2.6,4.2-2l58.4,20.9c1.7,0.6,2.6,2.5,2,4.2l0,0
			c-0.6,1.7-2.5,2.6-4.2,2L101,207.1z"/>
		<path class="st6" d="M340.3,303.4c-1.5-0.8-2-2.7-1.1-4.3l0,0c0.9-1.6,2.7-2.3,4.2-1.5l50.1,27c1.5,0.8,2,2.7,1.1,4.3l0,0
			c-0.9,1.6-2.7,2.2-4.2,1.5L340.3,303.4z"/>
		<path class="st6" d="M122.4,190.5c-1.5-0.8-1.9-2.7-1.1-4.3l0,0c0.9-1.6,2.7-2.3,4.2-1.5l50.1,27c1.5,0.8,1.9,2.7,1.1,4.3l0,0
			c-0.9,1.6-2.7,2.2-4.2,1.5L122.4,190.5z"/>
		<path class="st6" d="M334.3,326.4c-1.4-1.2-1.5-3.3-0.3-4.6l0,0c1.2-1.4,3.3-1.5,4.6-0.3l46.6,41c1.4,1.2,1.5,3.3,0.3,4.6l0,0
			c-1.2,1.4-3.3,1.5-4.6,0.3L334.3,326.4z"/>
		<path class="st6" d="M130.8,152.6c-1.4-1.2-1.5-3.3-0.3-4.6l0,0c1.2-1.4,3.3-1.5,4.6-0.3l46.6,41c1.4,1.2,1.5,3.3,0.3,4.6l0,0
			c-1.2,1.4-3.3,1.5-4.6,0.3L130.8,152.6z"/>
		<path class="st6" d="M317.5,330.6c-1.1-1.3-0.8-3.3,0.6-4.4l0,0c1.4-1.2,3.4-1.1,4.4,0.2L359,370c1.1,1.3,0.8,3.3-0.6,4.4l0,0
			c-1.4,1.2-3.4,1.1-4.4-0.2L317.5,330.6z"/>
		<path class="st6" d="M156.8,145.1c-1.1-1.3-0.8-3.2,0.6-4.4l0,0c1.4-1.2,3.4-1.1,4.4,0.2l36.5,43.6c1.1,1.3,0.8,3.2-0.6,4.4l0,0
			c-1.4,1.2-3.4,1.1-4.4-0.2L156.8,145.1z"/>
		<path class="st6" d="M305.4,348.7c-0.9-1.6-0.3-3.6,1.3-4.4l0,0c1.6-0.9,3.6-0.3,4.4,1.3l29.3,54.7c0.9,1.6,0.2,3.6-1.3,4.4l0,0
			c-1.6,0.8-3.6,0.2-4.4-1.3L305.4,348.7z"/>
		<path class="st6" d="M175.5,114.7c-0.9-1.6-0.3-3.6,1.3-4.4l0,0c1.6-0.9,3.6-0.3,4.4,1.3l29.3,54.7c0.9,1.6,0.3,3.6-1.3,4.4l0,0
			c-1.6,0.8-3.6,0.2-4.4-1.3L175.5,114.7z"/>
		<path class="st6" d="M288.3,346.8c-0.6-1.6,0.4-3.3,2.1-3.9l0,0c1.7-0.6,3.5,0.2,4.1,1.7l19,53.6c0.6,1.6-0.4,3.3-2.1,3.9l0,0
			c-1.7,0.6-3.5-0.2-4.1-1.7L288.3,346.8z"/>
		<path class="st6" d="M202.5,116.9c-0.6-1.6,0.4-3.3,2.1-3.9l0,0c1.7-0.6,3.5,0.2,4.1,1.7l19,53.6c0.6,1.6-0.4,3.3-2.1,3.9l0,0
			c-1.7,0.6-3.5-0.2-4.1-1.7L202.5,116.9z"/>
		<path class="st6" d="M271.9,359.4c-0.3-1.8,1-3.5,2.8-3.7l0,0c1.8-0.3,3.5,1,3.7,2.8l9.2,61.4c0.3,1.8-1,3.5-2.8,3.7l0,0
			c-1.8,0.3-3.5-1-3.7-2.8L271.9,359.4z"/>
		<path class="st6" d="M228.3,95.3c-0.3-1.8,1-3.5,2.8-3.7l0,0c1.8-0.3,3.5,1,3.7,2.8l9.2,61.4c0.3,1.8-1,3.5-2.8,3.7l0,0
			c-1.8,0.3-3.5-1-3.7-2.8L228.3,95.3z"/>
	</g>
	<g>
		
			<ellipse transform="matrix(0.8291 -0.5591 0.5591 0.8291 -67.3088 136.3746)" class="st7" cx="189.421" cy="178.288" rx="3.6" ry="6.2"/>
		
			<ellipse transform="matrix(0.8291 -0.5591 0.5591 0.8291 -47.1728 133.0221)" class="st7" cx="194.005" cy="143.674" rx="3.6" ry="6.2"/>
		
			<ellipse transform="matrix(0.0411 -0.9992 0.9992 0.0411 80.8344 382.415)" class="st7" cx="239.651" cy="149.094" rx="6.2" ry="3.6"/>
		
			<ellipse transform="matrix(0.8057 -0.5923 0.5923 0.8057 -49.0442 161.07)" class="st7" cx="220.997" cy="155.293" rx="3.6" ry="6.2"/>
		
			<ellipse transform="matrix(0.1689 -0.9856 0.9856 0.1689 86.3403 362.1487)" class="st7" cx="257.914" cy="129.877" rx="6.2" ry="3.6"/>
		
			<ellipse transform="matrix(0.1694 -0.9855 0.9855 0.1694 81.9861 393.4279)" class="st7" cx="274.406" cy="148.073" rx="6.2" ry="3.6"/>
		
			<ellipse transform="matrix(0.5438 -0.8392 0.8392 0.5438 5.1735 325.4896)" class="st7" cx="301.971" cy="157.986" rx="6.2" ry="3.6"/>
		
			<ellipse transform="matrix(0.1293 -0.9916 0.9916 0.1293 126.9092 404.0846)" class="st7" cx="293.553" cy="129.776" rx="6.2" ry="3.6"/>
		
			<ellipse transform="matrix(0.622 -0.783 0.783 0.622 -8.9668 312.9786)" class="st7" cx="319.685" cy="165.777" rx="6.2" ry="3.6"/>
		
			<ellipse transform="matrix(0.622 -0.783 0.783 0.622 0.6692 331.3747)" class="st7" cx="343.556" cy="164.994" rx="6.2" ry="3.6"/>
		
			<ellipse transform="matrix(0.9651 -0.2617 0.2617 0.9651 -38.3472 102.8195)" class="st7" cx="366.852" cy="195.381" rx="6.2" ry="3.6"/>
		
			<ellipse transform="matrix(0.5898 -0.8075 0.8075 0.5898 -4.7578 357.853)" class="st7" cx="349.881" cy="183.61" rx="6.2" ry="3.6"/>
		
			<ellipse transform="matrix(0.9907 -0.136 0.136 0.9907 -26.0758 51.5159)" class="st7" cx="363.993" cy="216.6" rx="6.2" ry="3.6"/>
		
			<ellipse transform="matrix(0.5521 -0.8338 0.8338 0.5521 -98.2776 429.854)" class="st7" cx="350.948" cy="306.399" rx="3.6" ry="6.2"/>
		
			<ellipse transform="matrix(0.9907 -0.1357 0.1357 0.9907 -27.6645 54.1518)" class="st7" cx="383.358" cy="229.988" rx="6.2" ry="3.6"/>
		
			<ellipse transform="matrix(0.2651 -0.9642 0.9642 0.2651 1.1656 549.2384)" class="st7" cx="360.897" cy="273.855" rx="3.6" ry="6.2"/>
		
			<ellipse transform="matrix(0.2651 -0.9642 0.9642 0.2651 -14.9047 566.124)" class="st7" cx="363.939" cy="292.84" rx="3.6" ry="6.2"/>
		
			<ellipse transform="matrix(0.9845 -0.1756 0.1756 0.9845 -39.4082 71.8541)" class="st7" cx="386.324" cy="258.612" rx="6.2" ry="3.6"/>
		
			<ellipse transform="matrix(0.976 -0.218 0.218 0.976 -72.8196 68.5834)" class="st7" cx="274.425" cy="364.327" rx="3.6" ry="6.2"/>
		
			<ellipse transform="matrix(0.7813 -0.6242 0.6242 0.7813 -132.0065 289.5346)" class="st7" cx="347.13" cy="333.126" rx="3.6" ry="6.2"/>
		
			<ellipse transform="matrix(0.9757 -0.2189 0.2189 0.9757 -74.2397 74.8972)" class="st7" cx="300.868" cy="372.469" rx="3.6" ry="6.2"/>
		
			<ellipse transform="matrix(0.8266 -0.5628 0.5628 0.8266 -133.6468 243.4872)" class="st7" cx="328.304" cy="338.623" rx="3.6" ry="6.2"/>
		
			<ellipse transform="matrix(0.9757 -0.2189 0.2189 0.9757 -73.4841 65.3056)" class="st7" cx="257.962" cy="364.263" rx="3.6" ry="6.2"/>
		
			<ellipse transform="matrix(0.9257 -0.3783 0.3783 0.9257 -111.3313 144.453)" class="st7" cx="312" cy="355.589" rx="3.6" ry="6.2"/>
		
			<ellipse transform="matrix(0.4022 -0.9156 0.9156 0.4022 -196.8786 426.686)" class="st7" cx="228.296" cy="364.103" rx="6.2" ry="3.6"/>
		
			<ellipse transform="matrix(0.9663 -0.2575 0.2575 0.9663 -84.0575 74.734)" class="st7" cx="243.313" cy="358.307" rx="3.6" ry="6.2"/>
		
			<ellipse transform="matrix(0.5162 -0.8565 0.8565 0.5162 -205.3293 351.7448)" class="st7" cx="208.675" cy="357.615" rx="6.2" ry="3.6"/>
		
			<ellipse transform="matrix(0.5164 -0.8564 0.8564 0.5164 -207.0557 336.0014)" class="st7" cx="193.954" cy="351.32" rx="6.2" ry="3.6"/>
		
			<ellipse transform="matrix(0.8119 -0.5839 0.5839 0.8119 -158.2556 159.7726)" class="st7" cx="168.776" cy="325.436" rx="6.2" ry="3.6"/>
		
			<ellipse transform="matrix(0.4815 -0.8765 0.8765 0.4815 -212.4634 332.1871)" class="st7" cx="174.516" cy="345.657" rx="6.2" ry="3.6"/>
		
			<ellipse transform="matrix(0.8646 -0.5024 0.5024 0.8646 -133.5574 125.9296)" class="st7" cx="166.904" cy="310.802" rx="6.2" ry="3.6"/>
		
			<ellipse transform="matrix(0.8646 -0.5024 0.5024 0.8646 -129.1814 115.1045)" class="st7" cx="149.004" cy="297.269" rx="6.2" ry="3.6"/>
		
			<ellipse transform="matrix(0.1077 -0.9942 0.9942 0.1077 -130.9807 367.7691)" class="st7" cx="139.39" cy="256.853" rx="3.6" ry="6.2"/>
		
			<ellipse transform="matrix(0.8438 -0.5366 0.5366 0.8438 -125.0884 127.3241)" class="st7" cx="156.2" cy="278.565" rx="6.2" ry="3.6"/>
		
			<ellipse transform="matrix(0.2343 -0.9722 0.9722 0.2343 -123.0966 326.0221)" class="st7" cx="145.415" cy="241.155" rx="3.6" ry="6.2"/>
		
			<ellipse transform="matrix(0.2346 -0.9721 0.9721 0.2346 -103.3193 305.9169)" class="st7" cx="142.604" cy="218.568" rx="3.6" ry="6.2"/>
		
			<ellipse transform="matrix(0.5981 -0.8014 0.8014 0.5981 -79.2998 213.847)" class="st7" cx="173.568" cy="185.99" rx="3.6" ry="6.2"/>
		
			<ellipse transform="matrix(0.1949 -0.9808 0.9808 0.1949 -76.5993 301.7635)" class="st7" cx="145.515" cy="197.541" rx="3.6" ry="6.2"/>
	</g>
	<g>
		<g>
			<g>
				<g>
					<circle id="SVGID_1_" class="st2" cx="1203.7" cy="104.3" r="21.1"/>
				</g>
				<g>
					<defs>
						<circle id="SVGID_2_" cx="1203.7" cy="104.3" r="21.1"/>
					</defs>
					<use xlink:href="#SVGID_2_"  style="overflow:visible;fill:#FFFFFF;"/>
					<clipPath id="SVGID_4_">
						<use xlink:href="#SVGID_2_"  style="overflow:visible;"/>
					</clipPath>
					<g class="st8">
						<g>
							<g>
								<g>
									<rect id="SVGID_3_" x="1177.5" y="78.1" class="st2" width="52.2" height="52.2"/>
								</g>
								<g>
									<defs>
										<rect id="SVGID_5_" x="1177.5" y="78.1" width="52.2" height="52.2"/>
									</defs>
									<use xlink:href="#SVGID_5_"  style="overflow:visible;fill:#FFFFFF;"/>
									<clipPath id="SVGID_7_">
										<use xlink:href="#SVGID_5_"  style="overflow:visible;"/>
									</clipPath>
									<g class="st9">
										
											<image style="overflow:visible;enable-background:new    ;" width="110" height="110" xlink:href="C:\Users\48537\Downloads\84B801E6.jpg"  transform="matrix(0.4778 0 0 0.4778 1177.3197 77.9557)">
										</image>
									</g>
								</g>
							</g>
						</g>
					</g>
				</g>
			</g>
		</g>
		
			<radialGradient id="SVGID_9_" cx="1203.7" cy="670.251" r="21.5755" gradientTransform="matrix(1 0 0 1 0 -566)" gradientUnits="userSpaceOnUse">
			<stop  offset="1" style="stop-color:#A4A4A4;stop-opacity:0"/>
			<stop  offset="1" style="stop-color:#FFFFFF"/>
		</radialGradient>
		<circle class="st10" cx="1203.7" cy="104.3" r="21.1"/>
	</g>
	<g>
		<g>
			<g>
				<g>
					<circle id="SVGID_6_" class="st2" cx="774" cy="104.3" r="21.1"/>
				</g>
				<g>
					<defs>
						<circle id="SVGID_10_" cx="774" cy="104.3" r="21.1"/>
					</defs>
					<use xlink:href="#SVGID_10_"  style="overflow:visible;fill:#FFFFFF;"/>
					<clipPath id="SVGID_11_">
						<use xlink:href="#SVGID_10_"  style="overflow:visible;"/>
					</clipPath>
					<g class="st11">
						<g>
							<g>
								<g>
									<rect id="SVGID_8_" x="747.8" y="78.1" class="st2" width="52.2" height="52.2"/>
								</g>
								<g>
									<defs>
										<rect id="SVGID_12_" x="747.8" y="78.1" width="52.2" height="52.2"/>
									</defs>
									<use xlink:href="#SVGID_12_"  style="overflow:visible;fill:#FFFFFF;"/>
									<clipPath id="SVGID_13_">
										<use xlink:href="#SVGID_12_"  style="overflow:visible;"/>
									</clipPath>
									<g class="st12">
										
											<image style="overflow:visible;enable-background:new    ;" width="113" height="110" xlink:href="C:\Users\48537\Downloads\84B801E3.jpg"  transform="matrix(0.4714 0 0 0.4714 747.3686 78.3116)">
										</image>
									</g>
								</g>
							</g>
						</g>
					</g>
				</g>
			</g>
		</g>
		<circle class="st13" cx="774" cy="104.3" r="21.1"/>
	</g>
</g>
<g>
	<path class="st13" d="M549.952,448.785c-4.555,0-8.812-1.193-12.768-3.584c-3.958-2.389-7.056-5.449-9.296-9.185v11.648h-5.152
		v-81.76h5.6v36.176c2.762-4.032,6.029-7.316,9.8-9.856c3.769-2.537,8.12-3.808,13.048-3.808c4.105,0,7.821,0.879,11.144,2.632
		c3.321,1.756,6.122,4.07,8.4,6.944c2.277,2.875,4.032,6.123,5.264,9.744c1.232,3.622,1.848,7.299,1.848,11.031
		c0,4.032-0.71,7.859-2.128,11.48c-1.419,3.622-3.379,6.795-5.88,9.52c-2.502,2.727-5.451,4.911-8.848,6.553
		C557.585,447.963,553.909,448.785,549.952,448.785z M548.832,443.745c3.434,0,6.569-0.709,9.408-2.128
		c2.836-1.418,5.281-3.304,7.336-5.656c2.053-2.352,3.657-5.021,4.816-8.008c1.157-2.985,1.736-6.048,1.736-9.185
		c0-3.284-0.542-6.439-1.624-9.464c-1.083-3.023-2.614-5.712-4.592-8.063c-1.979-2.353-4.332-4.237-7.056-5.656
		c-2.727-1.417-5.731-2.128-9.016-2.128c-2.464,0-4.779,0.431-6.944,1.288c-2.167,0.859-4.163,1.998-5.992,3.416
		c-1.83,1.419-3.472,3.063-4.928,4.928c-1.456,1.867-2.67,3.809-3.64,5.824v19.264c0.224,2.167,1.045,4.2,2.464,6.104
		c1.417,1.903,3.117,3.547,5.096,4.928c1.978,1.383,4.125,2.483,6.44,3.304C544.649,443.336,546.816,443.745,548.832,443.745z"/>
	<path class="st13" d="M616.032,448.785c-4.107,0-7.916-0.804-11.423-2.408c-3.512-1.604-6.553-3.808-9.129-6.608
		c-2.576-2.8-4.592-6.028-6.048-9.688c-1.456-3.657-2.184-7.577-2.184-11.76c0-4.105,0.728-7.97,2.184-11.592
		c1.456-3.621,3.452-6.794,5.991-9.521c2.539-2.725,5.545-4.872,9.018-6.44c3.471-1.567,7.223-2.352,11.256-2.352
		c4.105,0,7.912,0.804,11.423,2.408c3.508,1.606,6.531,3.771,9.072,6.496c2.537,2.727,4.516,5.899,5.936,9.52
		c1.418,3.623,2.127,7.448,2.127,11.48c0,0.374,0,0.84,0,1.399c0,0.561-0.037,0.916-0.111,1.064h-51.072
		c0.225,3.36,1.008,6.479,2.352,9.352c1.344,2.876,3.043,5.358,5.096,7.448c2.053,2.092,4.426,3.734,7.113,4.928
		c2.688,1.195,5.561,1.792,8.623,1.792c2.016,0,3.994-0.279,5.938-0.84c1.939-0.56,3.752-1.324,5.432-2.296
		c1.68-0.97,3.172-2.146,4.479-3.528c1.307-1.38,2.334-2.893,3.08-4.535l4.93,1.344c-0.824,2.091-2.035,4.015-3.641,5.768
		c-1.607,1.756-3.473,3.268-5.6,4.536c-2.129,1.271-4.463,2.26-7,2.968C621.333,448.43,618.72,448.785,616.032,448.785z
		 M638.88,416.305c-0.225-3.434-0.99-6.569-2.297-9.407c-1.307-2.837-2.986-5.282-5.039-7.336c-2.055-2.054-4.424-3.658-7.113-4.816
		c-2.688-1.157-5.563-1.736-8.623-1.736c-3.063,0-5.936,0.579-8.625,1.736c-2.688,1.158-5.059,2.763-7.111,4.816
		c-2.055,2.054-3.695,4.518-4.928,7.392c-1.232,2.875-1.961,5.992-2.184,9.352H638.88z"/>
	<path class="st13" d="M670.911,448.785c-2.688,0-5.19-0.468-7.504-1.4c-2.315-0.933-4.351-2.201-6.104-3.808
		c-1.755-1.604-3.118-3.509-4.088-5.712c-0.972-2.202-1.456-4.573-1.456-7.112c0-2.537,0.597-4.853,1.792-6.944
		c1.193-2.089,2.856-3.9,4.984-5.432c2.128-1.529,4.685-2.725,7.672-3.584c2.985-0.857,6.271-1.288,9.855-1.288
		c3.137,0,6.29,0.28,9.465,0.84c3.172,0.561,6.028,1.327,8.567,2.296v-5.712c0-5.524-1.567-9.912-4.704-13.16
		c-3.136-3.247-7.392-4.871-12.768-4.871c-2.839,0-5.844,0.598-9.017,1.792c-3.174,1.195-6.402,2.911-9.688,5.151l-2.128-3.808
		c7.466-5.077,14.56-7.616,21.28-7.616c7.017,0,12.544,2.035,16.575,6.104c4.032,4.07,6.049,9.688,6.049,16.855v28.448
		c0,1.867,0.82,2.8,2.464,2.8v5.04c-0.375,0.073-0.767,0.13-1.177,0.168c-0.411,0.037-0.766,0.056-1.063,0.056
		c-1.494,0-2.688-0.504-3.584-1.512c-0.896-1.008-1.419-2.221-1.568-3.64v-4.816c-2.688,3.511-6.123,6.198-10.304,8.064
		C680.28,447.851,675.764,448.785,670.911,448.785z M672.031,444.305c4.329,0,8.305-0.82,11.928-2.464
		c3.621-1.642,6.401-3.808,8.344-6.496c1.193-1.567,1.792-3.061,1.792-4.479v-10.304c-2.688-1.045-5.488-1.829-8.399-2.353
		c-2.912-0.521-5.937-0.784-9.072-0.784c-2.912,0-5.563,0.318-7.952,0.952c-2.391,0.636-4.443,1.512-6.16,2.632
		c-1.719,1.12-3.043,2.483-3.976,4.088c-0.935,1.606-1.4,3.38-1.4,5.32c0,1.942,0.373,3.771,1.12,5.488
		c0.745,1.719,1.792,3.191,3.136,4.424c1.345,1.232,2.93,2.203,4.76,2.912C667.979,443.951,669.939,444.305,672.031,444.305z"/>
	<path class="st13" d="M734.749,448.785c-12.395,0-18.592-8.586-18.592-25.76v-33.601h5.601v32.816
		c0,14.336,4.889,21.504,14.672,21.504c2.464,0,4.853-0.429,7.168-1.288c2.313-0.857,4.479-2.053,6.496-3.584
		c2.016-1.529,3.788-3.378,5.319-5.544c1.53-2.165,2.744-4.554,3.641-7.168v-36.736h5.6v50.4c0,1.867,0.784,2.8,2.353,2.8v5.04
		c-0.375,0.073-0.711,0.112-1.009,0.112c-0.299,0-0.522,0-0.672,0c-1.494,0-2.819-0.466-3.976-1.4
		c-1.158-0.933-1.736-2.184-1.736-3.752v-8.736c-2.539,4.704-6.03,8.363-10.472,10.977
		C744.698,447.479,739.901,448.785,734.749,448.785z"/>
	<path class="st13" d="M808.444,444.865c-0.299,0.15-0.803,0.431-1.512,0.84c-0.711,0.411-1.606,0.803-2.688,1.176
		c-1.083,0.375-2.296,0.711-3.64,1.008c-1.344,0.298-2.8,0.448-4.368,0.448c-1.567,0-3.043-0.224-4.424-0.672
		c-1.383-0.448-2.595-1.12-3.64-2.016c-1.047-0.896-1.867-1.978-2.464-3.248c-0.599-1.27-0.896-2.762-0.896-4.48v-43.904h-8.176
		v-4.592h8.176v-19.936h5.601v19.936h13.552v4.592h-13.552v42.561c0,2.166,0.745,3.79,2.239,4.872
		c1.493,1.083,3.173,1.624,5.04,1.624c2.313,0,4.313-0.393,5.992-1.176c1.68-0.784,2.705-1.288,3.08-1.513L808.444,444.865z"/>
	<path class="st13" d="M822.22,467.377c0.372,0.073,0.933,0.112,1.68,0.112c0.745,0,1.437-0.039,2.072-0.112
		c0.633-0.075,1.249-0.263,1.848-0.56c0.448-0.225,0.857-0.543,1.232-0.952c0.372-0.411,0.896-1.251,1.567-2.521
		c0.672-1.271,1.53-3.136,2.576-5.6c1.045-2.464,2.464-5.824,4.256-10.08l-25.983-58.24h5.823l23.185,52.752l21.616-52.752h5.487
		l-31.92,76.608c-0.822,2.089-2.146,3.713-3.976,4.872c-1.831,1.156-4.313,1.735-7.448,1.735c-0.299,0-0.616,0-0.952,0
		s-0.691-0.038-1.063-0.111V467.377z"/>
	<path class="st13" d="M903.529,418.321c0-4.105,0.709-7.989,2.128-11.648c1.417-3.657,3.396-6.832,5.936-9.52
		c2.538-2.688,5.562-4.816,9.072-6.385c3.509-1.567,7.354-2.352,11.536-2.352c5.301,0,9.968,1.195,14,3.584
		c4.032,2.391,7.056,5.712,9.072,9.968l-5.488,1.792c-1.719-3.209-4.163-5.729-7.336-7.56c-3.175-1.829-6.664-2.744-10.472-2.744
		c-3.212,0-6.199,0.636-8.96,1.904c-2.764,1.271-5.172,3.023-7.225,5.264c-2.055,2.24-3.679,4.872-4.872,7.896
		c-1.195,3.023-1.792,6.291-1.792,9.8c0,3.51,0.616,6.814,1.849,9.912c1.231,3.099,2.873,5.787,4.928,8.063
		c2.053,2.278,4.479,4.088,7.28,5.433c2.8,1.344,5.768,2.016,8.903,2.016c2.017,0,4.013-0.298,5.992-0.896
		c1.978-0.597,3.809-1.38,5.488-2.352c1.68-0.97,3.136-2.108,4.368-3.416c1.231-1.306,2.071-2.669,2.52-4.088l5.488,1.568
		c-0.747,2.016-1.887,3.902-3.416,5.655c-1.531,1.756-3.343,3.268-5.432,4.536c-2.092,1.271-4.407,2.26-6.944,2.968
		c-2.539,0.709-5.152,1.064-7.84,1.064c-4.107,0-7.916-0.804-11.424-2.408c-3.511-1.604-6.553-3.808-9.129-6.608
		c-2.575-2.8-4.592-6.028-6.048-9.688C904.257,426.424,903.529,422.504,903.529,418.321z"/>
	<path class="st13" d="M993.354,448.785c-4.107,0-7.916-0.804-11.424-2.408c-3.511-1.604-6.553-3.808-9.129-6.608
		c-2.575-2.8-4.592-6.028-6.048-9.688c-1.456-3.657-2.184-7.577-2.184-11.76c0-4.105,0.728-7.97,2.184-11.592
		c1.456-3.621,3.453-6.794,5.992-9.521c2.538-2.725,5.544-4.872,9.017-6.44c3.472-1.567,7.224-2.352,11.256-2.352
		c4.105,0,7.913,0.804,11.424,2.408c3.509,1.606,6.532,3.771,9.072,6.496c2.537,2.727,4.517,5.899,5.936,9.52
		c1.418,3.623,2.128,7.448,2.128,11.48c0,0.374,0,0.84,0,1.399c0,0.561-0.038,0.916-0.112,1.064h-51.071
		c0.224,3.36,1.008,6.479,2.352,9.352c1.344,2.876,3.042,5.358,5.096,7.448c2.053,2.092,4.425,3.734,7.112,4.928
		c2.688,1.195,5.562,1.792,8.624,1.792c2.016,0,3.993-0.279,5.937-0.84c1.94-0.56,3.752-1.324,5.432-2.296
		c1.68-0.97,3.173-2.146,4.479-3.528c1.306-1.38,2.333-2.893,3.08-4.535l4.929,1.344c-0.823,2.091-2.035,4.015-3.641,5.768
		c-1.606,1.756-3.472,3.268-5.6,4.536c-2.128,1.271-4.463,2.26-7,2.968C998.654,448.43,996.041,448.785,993.354,448.785z
		 M1016.201,416.305c-0.224-3.434-0.99-6.569-2.296-9.407c-1.308-2.837-2.987-5.282-5.04-7.336
		c-2.055-2.054-4.424-3.658-7.112-4.816c-2.688-1.157-5.563-1.736-8.624-1.736c-3.063,0-5.936,0.579-8.624,1.736
		c-2.688,1.158-5.059,2.763-7.111,4.816c-2.055,2.054-3.696,4.518-4.929,7.392c-1.231,2.875-1.96,5.992-2.184,9.352H1016.201z"/>
	<path class="st13" d="M1081.496,447.665h-5.6v-32.48c0-7.54-1.064-13.028-3.192-16.464c-2.128-3.434-5.507-5.151-10.136-5.151
		c-2.464,0-4.911,0.447-7.336,1.344c-2.428,0.896-4.687,2.166-6.776,3.808c-2.091,1.644-3.92,3.566-5.488,5.769
		c-1.567,2.203-2.727,4.574-3.472,7.111v36.064h-5.6v-58.24h5.264v13.889c1.193-2.24,2.669-4.274,4.424-6.104
		c1.754-1.829,3.733-3.396,5.937-4.704c2.201-1.306,4.536-2.313,7-3.023c2.464-0.709,5.001-1.064,7.615-1.064
		c6.346,0,10.826,2.223,13.44,6.664c2.612,4.443,3.92,10.808,3.92,19.096V447.665z"/>
	<path class="st13" d="M1124.391,444.865c-0.299,0.15-0.803,0.431-1.512,0.84c-0.711,0.411-1.606,0.803-2.688,1.176
		c-1.083,0.375-2.296,0.711-3.64,1.008c-1.344,0.298-2.8,0.448-4.368,0.448c-1.567,0-3.043-0.224-4.424-0.672
		c-1.383-0.448-2.595-1.12-3.64-2.016c-1.047-0.896-1.867-1.978-2.464-3.248c-0.599-1.27-0.896-2.762-0.896-4.48v-43.904h-8.176
		v-4.592h8.176v-19.936h5.601v19.936h13.552v4.592h-13.552v42.561c0,2.166,0.745,3.79,2.239,4.872
		c1.493,1.083,3.173,1.624,5.04,1.624c2.313,0,4.313-0.393,5.992-1.176c1.68-0.784,2.705-1.288,3.08-1.513L1124.391,444.865z"/>
	<path class="st13" d="M1158.998,448.785c-4.107,0-7.916-0.804-11.424-2.408c-3.511-1.604-6.553-3.808-9.129-6.608
		c-2.575-2.8-4.592-6.028-6.048-9.688c-1.456-3.657-2.184-7.577-2.184-11.76c0-4.105,0.728-7.97,2.184-11.592
		c1.456-3.621,3.453-6.794,5.992-9.521c2.538-2.725,5.544-4.872,9.017-6.44c3.472-1.567,7.224-2.352,11.256-2.352
		c4.105,0,7.913,0.804,11.424,2.408c3.509,1.606,6.532,3.771,9.072,6.496c2.537,2.727,4.517,5.899,5.936,9.52
		c1.418,3.623,2.128,7.448,2.128,11.48c0,0.374,0,0.84,0,1.399c0,0.561-0.038,0.916-0.112,1.064h-51.071
		c0.224,3.36,1.008,6.479,2.352,9.352c1.344,2.876,3.042,5.358,5.096,7.448c2.053,2.092,4.425,3.734,7.112,4.928
		c2.688,1.195,5.562,1.792,8.624,1.792c2.016,0,3.993-0.279,5.937-0.84c1.94-0.56,3.752-1.324,5.432-2.296
		c1.68-0.97,3.173-2.146,4.479-3.528c1.306-1.38,2.333-2.893,3.08-4.535l4.929,1.344c-0.823,2.091-2.035,4.015-3.641,5.768
		c-1.606,1.756-3.472,3.268-5.6,4.536c-2.128,1.271-4.463,2.26-7,2.968C1164.299,448.43,1161.686,448.785,1158.998,448.785z
		 M1181.846,416.305c-0.224-3.434-0.99-6.569-2.296-9.407c-1.308-2.837-2.987-5.282-5.04-7.336
		c-2.055-2.054-4.424-3.658-7.112-4.816c-2.688-1.157-5.563-1.736-8.624-1.736c-3.063,0-5.936,0.579-8.624,1.736
		c-2.688,1.158-5.059,2.763-7.111,4.816c-2.055,2.054-3.696,4.518-4.929,7.392c-1.231,2.875-1.96,5.992-2.184,9.352H1181.846z"/>
	<path class="st13" d="M1227.093,394.465c-5.228,0.15-9.8,1.699-13.72,4.648c-3.92,2.95-6.664,7-8.232,12.151v36.4h-5.6v-58.24
		h5.376v14.336c2.016-4.105,4.685-7.447,8.008-10.023c3.321-2.576,6.888-4.05,10.696-4.424c0.745-0.074,1.417-0.112,2.016-0.112
		c0.597,0,1.081,0,1.456,0V394.465z"/>
</g>
</svg>
